<svg width="44" height="44" viewBox="0 0 44 44" xmlns="http://www.w3.org/2000/svg" xmlns:xlink="http://www.w3.org/1999/xlink">
    <defs>
        <path d="m1.085 5.622 3.41 2.643c.802-2.412 3.051-4.207 5.71-4.207 1.497 0 2.842.515 3.9 1.526l2.927-2.926C15.264 1.01 12.954 0 10.204 0a10.2 10.2 0 0 0-9.119 5.622z" id="zx0ocu3ima"/>
    </defs>
    <g fill="none" fill-rule="evenodd">
        <circle stroke="#CACACA" fill="#FFF" cx="22" cy="22" r="21.5"/>
        <g transform="translate(12 12)">
            <path d="M10.204 8.349v3.947h5.492a4.694 4.694 0 0 1-2.036 3.08v2.56h3.297c1.93-1.776 3.043-4.392 3.043-7.5 0-.724-.065-1.42-.186-2.087h-9.61z" fill="#3E82F1"/>
            <path d="M1.085 12.143v2.644a10.2 10.2 0 0 0 9.12 5.621c2.754 0 5.064-.914 6.752-2.472l-3.297-2.56c-.914.612-2.083.974-3.456.974-2.658 0-4.907-1.795-5.71-4.207H1.085z" fill="#32A753"/>
            <path d="M1.085 5.622A10.2 10.2 0 0 0 0 10.204a10.2 10.2 0 0 0 1.085 4.583l3.41-2.644a6.133 6.133 0 0 1-.32-1.939c0-.673.115-1.326.32-1.939V5.622h-3.41z" fill="#F9BB00"/>
            <use fill="#E74133" xlink:href="#zx0ocu3ima"/>
        </g>
    </g>
</svg>
