<svg class="svg-icon" style="width: 1em; height: 1em;vertical-align: middle;fill: currentColor;overflow: hidden;" viewBox="0 0 1024 1024" version="1.1" xmlns="http://www.w3.org/2000/svg"><path d="M252.810304 1024l511.98976 0c26.459631 0 48.00416-21.544529 48.00416-48.00416l0-927.99168c0-26.459631-21.544529-48.00416-48.00416-48.00416l-511.98976 0c-26.459631 0-48.00416 21.544529-48.00416 48.00416l0 927.99168c0 26.459631 21.544529 48.00416 48.00416 48.00416zM236.815744 48.02464c0-8.826703 7.167857-15.99456 15.99456-15.99456l511.98976 0c8.826703 0 15.99456 7.167857 15.99456 15.99456l0 927.99168c0 8.826703-7.167857 15.99456-15.99456 15.99456l-511.98976 0c-8.826703 0-15.99456-7.167857-15.99456-15.99456l0-927.99168zM284.799424 864.01344l447.99104 0c8.826703 0 15.99456-7.167857 15.99456-15.99456l0-671.9968c0-8.826703-7.167857-15.99456-15.99456-15.99456l-447.99104 0c-8.826703 0-15.99456 7.167857-15.99456 15.99456l0 671.9968c0 8.826703 7.167857 15.99456 15.99456 15.99456zM300.814464 192.01664l416.00192 0 0 639.9872-416.00192 0 0-639.9872zM492.810624 928.01216c0 17.673887 14.335713 32.0096 32.0096 32.0096s32.0096-14.335713 32.0096-32.0096c0-17.673887-14.335713-32.0096-32.0096-32.0096s-32.0096 14.335713-32.0096 32.0096zM444.806464 128.01792l127.99744 0c8.826703 0 15.99456-7.167857 15.99456-15.99456s-7.167857-15.99456-15.99456-15.99456l-127.99744 0c-8.826703 0-15.99456 7.167857-15.99456 15.99456s7.167857 15.99456 15.99456 15.99456z"  /></svg>