<svg class="svg-icon" style="width: 1em; height: 1em;vertical-align: middle;fill: currentColor;overflow: hidden;" viewBox="0 0 1024 1024" version="1.1" xmlns="http://www.w3.org/2000/svg"><path d="M136.734118 770.409412l79.510588 0c0 0 0 0 0 0 6.625882 0 12.047059-5.421176 12.047059-12.047059 0-6.625882-5.421176-12.047059-12.047059-12.047059l-79.510588 0c0 0 0 0 0 0-6.625882 0-12.047059 5.421176-12.047059 12.047059C124.687059 764.988235 130.108235 770.409412 136.734118 770.409412z"  /><path d="M136.734118 830.042353l185.524706 0.602353c0 0 0 0 0 0 6.625882 0 12.047059-5.421176 12.047059-12.047059 0-6.625882-5.421176-12.047059-12.047059-12.047059l-185.524706-0.602353c0 0 0 0 0 0-6.625882 0-12.047059 5.421176-12.047059 12.047059C124.687059 824.621176 130.108235 830.042353 136.734118 830.042353z"  /><path d="M842.089412 63.849412 183.717647 63.849412C89.750588 63.849412 12.649412 140.950588 12.649412 234.917647l0 148.178824 0 43.971765L12.649412 764.988235c0 93.967059 76.498824 171.068235 171.068235 171.068235l657.769412 0c93.967059 0 171.068235-76.498824 171.068235-171.068235L1012.555294 427.068235l0-43.971765L1012.555294 234.917647C1012.555294 140.950588 936.056471 63.849412 842.089412 63.849412zM976.414118 764.988235c0 74.089412-60.235294 134.927059-134.927059 134.927059L183.717647 899.915294c-74.089412 0-134.927059-60.235294-134.927059-134.927059L48.790588 427.068235l927.623529 0L976.414118 764.988235zM48.790588 383.096471 48.790588 234.917647c0-74.089412 60.235294-134.927059 134.927059-134.927059l657.769412 0c74.089412 0 134.927059 60.235294 134.927059 134.927059l0 148.178824L48.790588 383.096471z"  /></svg>