<svg class="svg-icon" style="width: 1em; height: 1em;vertical-align: middle;fill: currentColor;overflow: hidden;" viewBox="0 0 1024 1024" version="1.1" xmlns="http://www.w3.org/2000/svg"><path d="M511.397647 488.508235c36.743529 0 71.077647-14.456471 96.978824-40.357647 25.901176-25.901176 40.357647-60.235294 40.357647-96.978824s-14.456471-71.077647-40.357647-96.978824c-25.901176-25.901176-60.235294-40.357647-96.978824-40.357647S440.32 228.894118 414.418824 254.795294c-25.901176 25.901176-40.357647 60.235294-40.357647 96.978824s14.456471 71.077647 40.357647 96.978824C440.32 474.654118 475.256471 488.508235 511.397647 488.508235zM440.32 280.094118c19.275294-19.275294 44.574118-29.515294 71.68-29.515294s52.404706 10.24 71.68 29.515294c19.275294 19.275294 29.515294 44.574118 29.515294 71.68S602.352941 403.576471 583.077647 422.851765l0 0c-19.275294 19.275294-44.574118 29.515294-71.68 29.515294s-52.404706-10.24-71.68-29.515294c-19.275294-19.275294-29.515294-44.574118-29.515294-71.68S421.044706 299.369412 440.32 280.094118z"  /><path d="M511.397647 802.334118l230.701176-230.701176c61.44-61.44 95.774118-143.962353 95.774118-230.701176s-33.731765-169.261176-95.774118-230.701176C680.658824 48.188235 598.738824 14.456471 511.397647 14.456471S342.738824 48.188235 280.696471 110.230588C219.256471 171.670588 184.922353 253.590588 184.922353 340.931765s33.731765 169.261176 95.774118 230.701176L511.397647 802.334118zM306.597647 135.529412C361.411765 80.715294 434.296471 50.597647 511.397647 50.597647s150.588235 30.117647 205.402353 84.931765c54.814118 54.814118 84.931765 127.698824 84.931765 205.402353s-30.117647 150.588235-84.931765 205.402353l-205.402353 205.402353L306.597647 546.334118c-54.814118-54.814118-84.931765-127.698824-84.931765-205.402353S251.783529 190.343529 306.597647 135.529412z"  /><path d="M1008.338824 943.284706l-103.002353-357.797647c-6.023529-20.48-27.708235-35.538824-51.2-35.538824l-57.223529 0c-10.24 0-18.070588 7.830588-18.070588 18.070588s7.830588 18.070588 18.070588 18.070588l57.223529 0c7.830588 0 15.058824 5.421176 16.263529 9.637647l103.002353 357.797647c1.204706 4.818824 1.204706 9.637647-0.602353 12.047059-1.204706 1.807059-3.614118 3.011765-7.228235 3.011765L57.223529 968.583529c-3.011765 0-5.421176-1.204706-7.228235-3.011765-1.807059-2.409412-2.409412-7.228235-0.602353-12.047059l103.002353-357.797647c1.204706-3.614118 8.432941-9.637647 16.263529-9.637647l60.235294 0c10.24 0 18.070588-7.830588 18.070588-18.070588s-7.830588-18.070588-18.070588-18.070588l-60.235294 0c-23.491765 0-45.176471 15.058824-51.2 35.538824L15.058824 943.284706c-4.818824 16.263529-2.409412 31.924706 6.625882 43.971765 8.432941 10.842353 21.082353 16.865882 36.141176 16.865882l908.348235 0c14.456471 0 27.708235-6.023529 36.141176-16.865882C1010.748235 975.209412 1013.157647 959.548235 1008.338824 943.284706z"  /></svg>