<svg class="svg-icon" style="width: 1.0009765625em; height: 1em;vertical-align: middle;fill: currentColor;overflow: hidden;" viewBox="0 0 1025 1024" version="1.1" xmlns="http://www.w3.org/2000/svg"><path d="M469.842763 470.334273c3.747765 0 7.51601-1.310694 10.567469-3.973041l362.140597-317.49509-21.114458-24.063519-362.140597 317.474611c-6.655867 5.816204-7.331693 15.933121-1.474531 22.588988 3.174337 3.624888 7.577448 5.468051 12.02152 5.468051zM326.0146 1023.97952c196.542629 0 313.972601-154.559469 313.972601-303.99904 0-43.068579-10.301234-90.51979-25.538049-121.341573l144.708786-72.354393c5.406612-2.723786 8.826703-8.253275 8.826703-14.294754l0-127.99744 96.00832 0c0.348153 0 3.256255-0.184316 3.624888-0.184316 21.319254-1.433571 27.688406-8.232795 28.384712-31.804804l0-127.99744 96.00832 0c4.136877 0 6.98354 0.450551 8.888142 0.737265 3.870643 0.614388 11.099938 1.720286 17.366693-3.911602 6.471551-5.754765 6.184836-13.065979 5.918602-19.49657-0.061439-2.293714-0.184316-5.345173-0.184316-9.338693l0-144.9955c0-25.927161-21.093978-47.00066-47.00066-47.00066l-124.00392 0c-11.325213 0-22.343233 4.136877-31.0061 11.652887l-421.98196 369.922842c-20.766305-4.157357-52.161517-9.563969-74.01324-9.563969-179.749365 0-325.973641 146.244755-325.973641 325.973641s146.244755 326.0146 326.0146 326.0146zM326.0146 404.00088c16.035519 0 43.47817 3.850163 75.323934 10.48555 4.956061 1.085418 10.055479-0.327673 13.823724-3.624888l427.859603-375.104178c2.785224-2.437071 6.328193-3.768245 9.953081-3.768245l124.00392 0c8.294234 0 15.01154 6.717306 15.01154 15.01154l0 144.9955-112.00288 0c-8.826703 0-15.99456 7.167857-15.99456 15.99456l0 143.992-112.00288 0c-8.826703 0-15.99456 7.167857-15.99456 15.99456l0 134.100358-151.159857 75.590168c-4.198316 2.088918-7.270255 5.959561-8.376152 10.48555s-0.184316 9.379652 2.559949 13.188856c14.089958 19.414652 28.9991 67.644087 28.9991 118.617788 0 133.690766-105.469891 271.98944-281.98348 271.98944-162.116438 0-294.005-131.909042-294.005-294.005s131.909042-293.98452 294.005-293.98452zM271.98944 863.99296c61.766445 0 112.00288-50.236435 112.00288-112.00288s-50.236435-112.00288-112.00288-112.00288-112.00288 50.236435-112.00288 112.00288 50.236435 112.00288 112.00288 112.00288zM271.98944 671.9968c44.092558 0 79.99328 35.900722 79.99328 79.99328s-35.900722 79.99328-79.99328 79.99328-79.99328-35.900722-79.99328-79.99328 35.900722-79.99328 79.99328-79.99328z"  /></svg>