<svg class="svg-icon" style="width: 1em; height: 1em;vertical-align: middle;fill: currentColor;overflow: hidden;" viewBox="0 0 1024 1024" version="1.1" xmlns="http://www.w3.org/2000/svg"><path d="M522.368 10.3936c-144.1536 0-252.9024 114.6624-252.9024 266.752l0 93.7472-8.192 0c-75.776 0-137.4464 63.3088-137.4464 141.0816l0 360.5248c0 77.7728 61.6704 141.1072 137.4464 141.1072l524.3392 0c75.776 0 137.4464-63.3344 137.4464-141.1072L923.0592 511.9744c0-77.7728-61.6704-141.0816-137.4464-141.0816l-4.5056 0c-1.2032-0.4352-2.4576-0.5632-3.712-0.768l0-93.0048C777.4464 125.0816 667.8016 10.3936 522.368 10.3936L522.368 10.3936zM522.368 52.224c123.52 0 213.248 94.592 213.248 224.9472l0 92.3648L311.3216 369.536l0-92.3648C311.3216 146.816 400.0768 52.224 522.368 52.224L522.368 52.224zM881.28 511.9744l0 360.5248c0 54.7328-42.9312 99.2768-95.616 99.2768L261.2992 971.776c-52.736 0-95.616-44.544-95.616-99.2768L165.6832 511.9744c0-54.7072 42.88-99.2512 95.616-99.2512l50.0224 0 0-1.3824 424.2688 0 0 1.3824 50.048 0C838.3488 412.7488 881.28 457.2672 881.28 511.9744L881.28 511.9744zM881.28 511.9744M518.8608 568.0384c-33.5104 0-60.672 28.0064-60.672 62.5664 0 23.1168 12.2368 43.3408 30.336 54.1696l0 102.1952c0 17.2544 13.568 31.3088 30.336 31.3088 16.7424 0 30.336-14.0544 30.336-31.3088L549.1968 684.8c18.0992-10.8288 30.3104-31.0272 30.3104-54.1696C579.456 596.0704 552.32 568.0384 518.8608 568.0384L518.8608 568.0384zM518.8608 568.0384"  /></svg>