<svg class="svg-icon" style="width: 1em; height: 1em;vertical-align: middle;fill: currentColor;overflow: hidden;" viewBox="0 0 1024 1024" version="1.1" xmlns="http://www.w3.org/2000/svg"><path d="M968.48 1012.16 58.96 1012.16c-8.832 0-16-7.152-16-16l0-90.112c0-178.272 101.168-340.896 259.6-420.496-47.152-52.208-72.88-118.72-72.88-189.664 0-156.624 127.424-284.048 284.064-284.048 156.608 0 284.016 127.424 284.016 284.048 0 70.944-25.696 137.456-72.848 189.664 158.4 79.616 259.568 242.24 259.568 420.496l0 90.112C984.48 1005.008 977.328 1012.16 968.48 1012.16zM74.96 980.16 952.48 980.16l0-74.112c0-173.232-102.512-330.624-261.168-400.992-4.896-2.176-8.368-6.64-9.28-11.92s0.88-10.656 4.768-14.336c50.928-48.192 78.976-113.152 78.976-182.928 0-138.992-113.04-252.048-252.016-252.048-138.992 0-252.064 113.072-252.064 252.048 0 69.76 28.048 134.72 79.008 182.912 3.888 3.68 5.664 9.056 4.768 14.336s-4.384 9.744-9.28 11.92C177.488 575.408 74.96 732.8 74.96 906.048L74.96 980.16z"  /></svg>