<?xml version="1.0" encoding="utf-8"?>
<!-- Generator: Adobe Illustrator 25.1.0, SVG Export Plug-In . SVG Version: 6.00 Build 0)  -->
<svg version="1.1" id="레이어_1" xmlns="http://www.w3.org/2000/svg" xmlns:xlink="http://www.w3.org/1999/xlink" x="0px"
	 y="0px" viewBox="0 0 1000 1000" style="enable-background:new 0 0 1000 1000;" xml:space="preserve">
<style type="text/css">
	.st0{fill:#FFFFFF;}
</style>
<g>
	<path class="st0" d="M500,370.63c-66.23,0-120.11,53.89-120.11,120.12S433.77,610.86,500,610.86s120.12-53.88,120.12-120.11
		S566.23,370.63,500,370.63z"/>
	<path class="st0" d="M696.99,179.58H303.02c-63.06,0-114.18,51.12-114.18,114.18v393.98c0,63.06,51.12,114.18,114.18,114.18h393.98
		c63.06,0,114.18-51.12,114.18-114.18V293.76C811.17,230.7,760.05,179.58,696.99,179.58z M500,648.74
		c-87.12,0-157.99-70.88-157.99-157.99c0-87.12,70.87-158,157.99-158s157.99,70.88,157.99,158
		C657.99,577.86,587.12,648.74,500,648.74z M689.79,342.23c-14.36,0-26-11.64-26-26s11.64-26,26-26s26,11.64,26,26
		S704.15,342.23,689.79,342.23z"/>
</g>
</svg>
