<svg width="37" height="36" viewBox="0 0 37 36" fill="none" xmlns="http://www.w3.org/2000/svg">
<path d="M35.674 12.6C35.37 9.4241 34.0761 6.42392 31.975 4.023C29.5728 1.93107 26.5775 0.641091 23.407 0.333C21.8378 0.121079 20.2565 0.00985134 18.673 0L17.332 0C15.7515 0.0099152 14.1733 0.121143 12.607 0.333C9.4334 0.642041 6.43669 1.93894 4.03903 4.041C1.94195 6.43738 0.648362 9.43056 0.340032 12.6C0.0839687 14.3881 -0.0273927 16.194 0.00703228 18C-0.0298659 19.8058 0.0784832 21.6116 0.331032 23.4C0.639845 26.5747 1.93313 29.5735 4.03003 31.977C6.43471 34.0706 9.43339 35.3607 12.607 35.667C14.1733 35.8785 15.7516 35.9898 17.332 36H18.664C20.2505 35.9905 21.8348 35.8793 23.407 35.667C26.5838 35.3598 29.5839 34.0628 31.984 31.959C34.0779 29.5615 35.3683 26.5684 35.674 23.4C35.9301 21.6119 36.0415 19.806 36.007 18C36.041 16.194 35.9296 14.3882 35.674 12.6Z" fill="#E5E5E5"/>
<path d="M17.9821 16.2132C18.7825 16.2132 19.5501 15.8976 20.1161 15.3358C20.682 14.774 21 14.012 21 13.2175C20.9921 12.4287 20.6705 11.6749 20.1052 11.1204C19.54 10.566 18.7768 10.2557 17.9821 10.2573C17.1912 10.2573 16.4327 10.5692 15.8734 11.1244C15.3142 11.6795 15 12.4324 15 13.2175C14.9999 14.0059 15.313 14.7625 15.8712 15.3233C16.4295 15.8841 17.1879 16.2039 17.9821 16.2132Z" fill="#AAAAAA" stroke="#AAAAAA" stroke-width="2" stroke-linecap="round" stroke-linejoin="round"/>
<path d="M25.8002 26.9338C25.8002 23.6157 22.3098 20.9779 17.9962 20.9779C13.6827 20.9779 10.2002 23.6489 10.2002 26.9338H25.8002Z" fill="#AAAAAA" stroke="#AAAAAA" stroke-width="2" stroke-linecap="round" stroke-linejoin="round"/>
</svg>
