<?xml version="1.0" encoding="utf-8"?>
<!-- Generator: Adobe Illustrator 25.1.0, SVG Export Plug-In . SVG Version: 6.00 Build 0)  -->
<svg version="1.1" id="레이어_1" xmlns="http://www.w3.org/2000/svg" xmlns:xlink="http://www.w3.org/1999/xlink" x="0px"
	 y="0px" viewBox="0 0 1000 1000" style="enable-background:new 0 0 1000 1000;" xml:space="preserve">
<style type="text/css">
	.st0{fill:#FFFFFF;}
</style>
<path class="st0" d="M908.05,295.27c-9.81-36.47-38.56-65.21-75.02-75.03c-66.61-18.22-333.04-18.22-333.04-18.22
	s-266.42,0-333.03,17.53c-35.76,9.81-65.21,39.26-75.02,75.72C74.41,361.88,74.41,500,74.41,500s0,138.82,17.53,204.73
	c9.82,36.46,38.56,65.2,75.02,75.02C234.27,797.98,500,797.98,500,797.98s266.42,0,333.03-17.53c36.47-9.81,65.21-38.56,75.03-75.02
	c17.52-66.61,17.52-204.73,17.52-204.73S926.29,361.88,908.05,295.27z M415.16,627.6V372.4L636.72,500L415.16,627.6z"/>
</svg>
